<svg width="1203" height="1024" viewBox="0 0 1203 1024" fill="none" xmlns="http://www.w3.org/2000/svg">
<g filter="url(#filter0_f_1_1398)">
<circle cx="601.5" cy="511.5" r="429.5" fill="url(#paint0_radial_1_1398)" fill-opacity="0.6"/>
</g>
<g style="mix-blend-mode:overlay">
<path d="M521.07 423.16C312.617 447.539 158 537.015 158 643.665C158 769.07 371.781 870.731 635.493 870.731C899.204 870.731 1112.99 769.07 1112.99 643.665C1112.99 533.564 948.2 441.766 729.514 421" stroke="url(#paint1_angular_1_1398)" stroke-width="1.70856" stroke-linecap="round"/>
</g>
<g style="mix-blend-mode:overlay">
<path d="M521.07 424.76C312.617 449.138 158 538.615 158 645.264C158 770.669 371.781 872.33 635.493 872.33C899.204 872.33 1112.99 770.669 1112.99 645.264C1112.99 535.164 948.2 443.366 729.514 422.599" stroke="url(#paint2_angular_1_1398)" stroke-width="1.70856" stroke-linecap="round"/>
</g>
<g style="mix-blend-mode:overlay">
<path d="M745.746 428.28C956.303 451.946 1112.99 541.903 1112.99 649.263C1112.99 774.668 899.204 876.328 635.493 876.328C371.781 876.328 158 774.668 158 649.263C158 544.369 307.568 456.087 510.818 430.015" stroke="url(#paint3_angular_1_1398)" stroke-width="1.70856" stroke-linecap="round"/>
</g>
<g style="mix-blend-mode:overlay">
<path d="M494.587 438.643C299.655 467.231 158 553.579 158 655.66C158 781.065 371.781 882.726 635.493 882.726C899.204 882.726 1112.99 781.065 1112.99 655.66C1112.99 550.27 961.999 461.65 757.279 436.046" stroke="url(#paint4_angular_1_1398)" stroke-width="1.70856" stroke-linecap="round"/>
</g>
<g style="mix-blend-mode:overlay">
<path d="M774.791 447.204C970.552 475.553 1112.99 562.094 1112.99 664.456C1112.99 789.861 899.204 891.522 635.493 891.522C371.781 891.522 158 789.861 158 664.456C158 565.458 291.228 481.257 477.074 450.186" stroke="url(#paint5_angular_1_1398)" stroke-width="1.70856" stroke-linecap="round"/>
</g>
<rect x="276" y="124" width="630" height="630" rx="315" fill="url(#paint6_linear_1_1398)"/>
<g clip-path="url(#clip0_1_1398)">
<path fill-rule="evenodd" clip-rule="evenodd" d="M489.761 1110.43C487.292 970.104 434.221 674.296 426.597 598.109C418.975 521.922 446.09 496.12 472.089 508.69C498.088 521.264 505.866 697.046 505.866 697.046C505.866 697.046 507.657 731.45 514.442 770.627C538.973 912.256 521.755 1112.45 521.755 1112.45C521.755 1112.45 517 1125.49 502.609 1123.75C488.22 1122.01 489.761 1110.43 489.761 1110.43Z" fill="#FFC999"/>
<path fill-rule="evenodd" clip-rule="evenodd" d="M337.573 1104.31C340.042 963.978 393.113 668.17 400.735 591.983C408.36 515.797 381.242 489.994 355.246 502.564C329.247 515.138 321.466 690.92 321.466 690.92C321.466 690.92 319.678 725.324 312.892 764.501C288.362 906.133 305.58 1106.32 305.58 1106.32C305.58 1106.32 310.335 1119.36 324.726 1117.63C339.112 1115.89 337.573 1104.31 337.573 1104.31Z" fill="#FFC999"/>
<path fill-rule="evenodd" clip-rule="evenodd" d="M353.313 472.699L355.045 462.197C355.045 462.197 401.828 462.237 457.653 462.581C458.035 467.939 459.568 474.45 459.568 474.45C459.568 474.45 419.232 487.978 353.313 472.699Z" fill="#002AB2"/>
<path fill-rule="evenodd" clip-rule="evenodd" d="M466.746 397.61L462.817 407.649C462.817 407.649 461.738 457.248 461.738 461.178C408.135 469.854 353.853 460.497 353.853 460.497L354.117 442.139L349.752 385.824L466.746 397.61Z" fill="white"/>
<path d="M465.933 396.856C466.109 396.407 466.615 396.186 467.064 396.361C467.463 396.517 467.682 396.935 467.603 397.341L467.559 397.492L463.684 407.389L462.121 460.261C462.107 460.943 462.1 461.422 462.1 461.686C462.1 462.106 461.8 462.467 461.387 462.544C430.466 468.281 398.825 467.964 369.719 463.983C365.568 463.416 361.8 462.811 358.46 462.203L357.362 462C356.309 461.803 355.365 461.617 354.535 461.446L352.894 461.095C352.532 461.011 352.268 460.71 352.224 460.353L352.218 460.196L353.246 441.652C353.273 441.171 353.684 440.802 354.166 440.829C354.593 440.853 354.932 441.181 354.983 441.591L354.989 441.749L354.001 459.55L354.408 459.637C355.028 459.767 355.722 459.908 356.485 460.056L357.684 460.285C361.262 460.956 365.373 461.627 369.956 462.254C398.262 466.125 428.987 466.512 459.064 461.191L460.361 460.954L460.503 455.122L461.22 430.637L461.945 407.186L462.004 406.896L465.933 396.856Z" fill="black"/>
<path fill-rule="evenodd" clip-rule="evenodd" d="M520.101 212.563C520.101 212.563 546.504 208.733 553.48 236.641C579.062 245.944 572.086 273.85 572.086 273.85C572.086 273.85 584.933 295.774 559.41 307.005C557.366 329.468 531.844 325.382 531.844 325.382C531.844 325.382 525.717 342.74 506.318 335.594C485.389 351.874 460.452 331.993 460.452 331.993C460.452 331.993 437.196 341.296 427.896 331.993C406.964 338.97 383.706 313.387 383.706 313.387C383.706 313.387 370.64 316.706 361.338 295.774C337.038 299.545 310.491 268.576 332.749 239.618C318.148 216.505 334.79 202.862 334.79 202.862C334.79 202.862 330.196 149.769 366.953 142.623C385.839 114.034 426.681 137.008 426.681 137.008C426.681 137.008 453.736 131.392 463.437 154.876C493.669 159.527 492.252 176.145 494.579 190.1C521.632 191.631 520.101 212.563 520.101 212.563Z" fill="black"/>
<path fill-rule="evenodd" clip-rule="evenodd" d="M436.211 186.638C415.01 190.358 408.569 174.318 408.569 174.318C408.569 174.318 399.823 151.727 397.583 165.596C396.391 172.968 384.996 163.186 379.757 171.045C376.231 176.332 385.047 183.148 373.59 197.246C366.952 205.413 393.132 211.933 376.981 226.988C376.981 226.988 388.465 245.365 368.738 251.36L364.376 272.757L409.838 272.687L408.375 248.047C439.006 248.047 440.501 205.946 436.211 186.638Z" fill="#FFC999"/>
<path d="M397.13 209.048C397.661 208.517 398.522 208.517 399.052 209.048L399.33 209.303C399.457 209.413 399.619 209.547 399.813 209.701C400.477 210.226 401.258 210.754 402.145 211.247C405.153 212.92 408.586 213.786 412.365 213.42C413.112 213.347 413.777 213.894 413.849 214.642C413.922 215.389 413.374 216.053 412.627 216.126C408.255 216.55 404.285 215.549 400.824 213.623C399.068 212.647 397.82 211.661 397.13 210.971C396.599 210.44 396.599 209.579 397.13 209.048Z" fill="#F5222D"/>
<path d="M413.856 187.796C414.393 187.835 414.811 188.259 414.858 188.778L414.86 188.967C414.834 189.685 414.975 190.89 415.449 192.528C416.212 195.166 417.637 198.128 419.893 201.36C420.248 201.868 420.105 202.57 419.58 202.899L418.173 203.773C416.351 204.893 414.744 205.834 413.348 206.609L412.834 206.893C412.444 207.106 412.089 207.296 411.767 207.465L410.668 208.02C410.641 208.033 410.617 208.044 410.597 208.053C410.053 208.304 409.409 208.067 409.159 207.523C408.908 206.98 409.145 206.336 409.688 206.085L410.192 205.838L411.085 205.374C411.306 205.256 411.543 205.129 411.794 204.991C413.089 204.283 414.589 203.416 416.297 202.379L417.474 201.655L417.205 201.244C415.474 198.558 414.281 196.035 413.542 193.708L413.367 193.13C412.877 191.437 412.693 190.098 412.689 189.158L412.698 188.8C412.74 188.203 413.259 187.754 413.856 187.796Z" fill="#DD936F"/>
<path fill-rule="evenodd" clip-rule="evenodd" d="M418.217 442.288C418.217 442.288 476.326 457.698 502.833 439.224C531.645 419.145 496.362 342.737 487.135 322.83C479.214 305.736 461.945 294.661 446.228 292.041C430.764 289.465 418.946 288.548 418.946 288.548L415.55 275.31C415.055 273.382 413.317 272.032 411.327 272.032H364.999C362.828 272.032 360.991 273.629 360.682 275.775L358.893 288.314C358.893 288.314 319.896 286.851 301.439 303.942C283.761 320.313 288.868 357.053 303.698 391.062C318.525 425.072 331.015 452.061 355.809 454.541C401.645 459.124 473.295 419.217 473.295 419.217C473.295 419.217 485.516 412.671 496.868 414.417C494.248 398.7 485.516 387.35 460.197 393.899L369.834 412.671" fill="white"/>
<path fill-rule="evenodd" clip-rule="evenodd" d="M473.73 366.615C473.73 366.615 478.097 381.02 469.039 392.698L470.021 407.758L405.848 442.466C405.848 442.466 475.69 458.568 503.599 442.288C524.531 430.078 518.514 395.349 502.45 360.351C502.45 360.351 489.815 356.524 473.73 366.615Z" fill="#FFC999"/>
<path fill-rule="evenodd" clip-rule="evenodd" d="M348.006 370.544L365.904 409.396L437.489 389.962C458.881 384.285 481.588 392.372 487.263 409.396C476.787 410.706 456.923 415.289 456.923 415.289C456.923 415.289 388.17 458.18 353.462 456.545C328.572 455.37 318.887 426.38 304.057 392.372C304.057 392.372 313.083 373.164 348.006 370.544Z" fill="#FFC999"/>
<path d="M464.563 329.072C465.045 329.072 465.436 329.463 465.436 329.945L465.422 331.161L465.395 332.366C465.378 332.993 465.355 333.655 465.326 334.347C465.212 337.094 465.022 339.841 464.739 342.464L464.605 343.604L465.012 344.024C467.759 346.932 469.95 350.022 471.618 353.273L472.025 354.089C476.947 364.29 476.625 375.158 473.139 385.415C472.579 387.06 471.98 388.546 471.379 389.848L471.074 390.494L470.564 391.49C470.328 391.91 469.796 392.06 469.375 391.824C468.955 391.588 468.806 391.056 469.041 390.636L469.291 390.163C469.428 389.893 469.598 389.543 469.794 389.118C470.37 387.869 470.947 386.439 471.486 384.854C474.838 374.991 475.147 364.576 470.453 354.847C468.692 351.198 466.25 347.747 463.071 344.527C462.883 344.337 462.793 344.071 462.826 343.806C463.204 340.777 463.447 337.526 463.583 334.274L463.65 332.318L463.689 330.221L463.691 329.945C463.691 329.463 464.081 329.072 464.563 329.072Z" fill="black"/>
<path d="M400.316 288.095C400.798 288.095 401.189 288.486 401.189 288.968C401.189 289.396 400.88 289.753 400.473 289.826L400.316 289.841H358.6C358.118 289.841 357.728 289.45 357.728 288.968C357.728 288.539 358.036 288.183 358.443 288.109L358.6 288.095H400.316Z" fill="black"/>
<path d="M419.922 288.22C420.062 287.675 420.618 287.347 421.163 287.487C421.654 287.613 421.969 288.076 421.924 288.564L421.896 288.728L408.145 342.205C407.959 342.929 407.099 343.196 406.537 342.76L406.413 342.647L356.43 289.17C356.045 288.759 356.067 288.114 356.478 287.729C356.844 287.388 357.394 287.367 357.782 287.655L357.919 287.778L406.632 339.898L419.922 288.22Z" fill="black"/>
<path fill-rule="evenodd" clip-rule="evenodd" d="M421.632 347.906C426.258 355.708 424.171 365.492 416.977 369.76C409.777 374.029 400.192 371.162 395.566 363.362C390.94 355.56 393.024 345.776 400.221 341.508C407.421 337.24 417.003 340.104 421.632 347.906Z" fill="#464646"/>
<path fill-rule="evenodd" clip-rule="evenodd" d="M423.292 347.868C427.92 355.67 425.833 365.454 418.636 369.72C411.439 373.988 401.854 371.123 397.228 363.321C392.603 355.519 394.687 345.738 401.884 341.47C409.081 337.201 418.666 340.066 423.292 347.868Z" fill="black"/>
<path fill-rule="evenodd" clip-rule="evenodd" d="M420.356 349.227C423.946 355.283 422.327 362.881 416.738 366.195C411.152 369.508 403.711 367.284 400.12 361.227C396.527 355.168 398.143 347.573 403.732 344.259C409.321 340.943 416.762 343.17 420.356 349.227Z" fill="#C961DE"/>
<path d="M387.896 242.934C388.182 242.408 388.84 242.213 389.366 242.499C395.295 245.725 401.438 247.345 407.603 247.429C408.202 247.437 408.68 247.929 408.672 248.528C408.664 249.126 408.172 249.605 407.574 249.597C401.055 249.508 394.567 247.796 388.33 244.404C387.805 244.118 387.61 243.459 387.896 242.934Z" fill="#DD936F"/>
<path fill-rule="evenodd" clip-rule="evenodd" d="M397.414 400.681C397.414 400.681 371.275 378.781 355.211 379.929C339.929 381.021 330.764 393.463 333.381 400.447C333.381 400.447 329.892 406.56 335.564 408.524C334.801 412.999 341.239 412.671 341.239 412.671C341.239 412.671 340.15 415.508 344.733 416.162C349.316 416.818 354.377 407.429 366.275 409.36L397.414 400.681Z" fill="#FFC999"/>
<path d="M354.556 378.275C347.398 378.786 339.717 383.885 334.198 390.697C331.882 393.555 330.286 396.371 329.837 398.433L329.783 398.71C329.49 400.437 330.082 401.673 331.351 402.078L331.431 402.099L331.332 402.329C330.974 403.206 330.801 404.096 330.892 404.981L330.935 405.293C331.171 406.627 332.029 407.725 333.512 408.495L333.843 408.655L333.842 408.729C333.857 410.861 335.294 412.213 337.51 412.821L337.979 412.937C338.447 413.04 338.913 413.107 339.358 413.146L339.481 413.153L339.49 413.241C339.541 413.644 339.672 414.052 339.903 414.452C340.57 415.604 341.926 416.364 344.005 416.661C345.163 416.827 346.309 416.535 347.667 415.832L348.082 415.609C348.925 415.137 352.142 413.013 352.18 412.989C356.669 410.154 360.47 409.035 365.527 409.856C365.675 409.88 365.827 409.873 365.972 409.836L398.31 401.48C399.171 401.257 399.412 400.15 398.722 399.589L397.557 398.668L396.372 397.756C395.749 397.282 395.08 396.781 394.369 396.258C390.987 393.767 387.35 391.276 383.597 388.95C379.264 386.265 375.055 383.975 371.067 382.201C364.963 379.485 359.602 378.074 355.157 378.242L354.556 378.275ZM370.186 384.181C374.075 385.912 378.201 388.156 382.455 390.793C386.155 393.086 389.745 395.545 393.084 398.003L394.642 399.165L395.644 399.928L365.643 407.681L365.874 407.717C360.436 406.834 356.252 407.97 351.585 410.807L351.023 411.156C350.922 411.22 347.785 413.291 347.024 413.717C345.856 414.37 345.02 414.616 344.312 414.515C342.838 414.305 342.075 413.877 341.779 413.366C341.657 413.155 341.619 412.923 341.64 412.699L341.677 412.486C341.937 411.806 341.469 411.086 340.762 411.019L340.561 411.016C339.846 411.036 338.935 410.964 338.084 410.731C336.509 410.299 335.82 409.54 336.061 408.133C336.15 407.61 335.849 407.099 335.347 406.926C333.786 406.385 333.14 405.66 333.048 404.76C332.983 404.121 333.193 403.364 333.6 402.592C333.822 402.171 334.043 401.849 334.174 401.686C334.825 400.879 334.08 399.706 333.072 399.953L332.682 400.04C331.813 400.203 331.724 399.954 331.955 398.894C332.319 397.223 333.76 394.681 335.883 392.061C341.059 385.672 348.25 380.899 354.711 380.437C358.847 380.141 364.1 381.474 370.186 384.181Z" fill="#DD936F"/>
<path d="M354.422 385.838C355.016 385.764 355.557 386.185 355.631 386.779C355.706 387.373 355.284 387.915 354.69 387.989C350.568 388.505 346.101 390.857 341.606 394.469C339.785 395.932 338.085 397.502 336.556 399.071L335.8 399.863L334.884 400.87C334.776 400.993 334.697 401.085 334.648 401.144C334.263 401.602 333.579 401.662 333.121 401.277C332.662 400.893 332.603 400.209 332.987 399.75L333.524 399.137C333.953 398.66 334.447 398.129 335.004 397.558C336.591 395.93 338.353 394.301 340.248 392.779C345.028 388.938 349.823 386.413 354.422 385.838Z" fill="#DD936F"/>
<path d="M361.631 391.69C362.229 391.671 362.73 392.139 362.75 392.738C362.77 393.336 362.301 393.837 361.703 393.857C361.341 393.869 360.975 393.893 360.607 393.927C355.491 394.412 349.93 397.033 344.316 401.112C342.103 402.719 340.036 404.443 338.175 406.166C337.686 406.618 337.239 407.046 336.836 407.442L335.92 408.367C335.892 408.397 335.868 408.423 335.848 408.445C335.439 408.882 334.754 408.907 334.316 408.498C333.878 408.09 333.854 407.404 334.262 406.967L334.911 406.299L335.749 405.476C336.047 405.188 336.366 404.887 336.702 404.575C338.623 402.797 340.755 401.019 343.042 399.358C348.942 395.072 354.828 392.297 360.402 391.769C360.815 391.73 361.224 391.704 361.631 391.69Z" fill="#DD936F"/>
<path d="M361.597 398.582C362.195 398.544 362.71 398.998 362.748 399.595C362.786 400.192 362.332 400.707 361.735 400.745C359.885 400.863 357.586 401.658 354.96 403.033C353.109 404.002 351.143 405.234 349.112 406.667C347.237 407.991 345.41 409.411 343.707 410.832L342.859 411.549L341.531 412.715C341.09 413.12 340.405 413.091 340 412.65C339.595 412.209 339.625 411.523 340.066 411.118L340.673 410.576L341.448 409.903C341.723 409.668 342.013 409.422 342.319 409.167C344.063 407.712 345.935 406.256 347.862 404.896C349.966 403.412 352.01 402.131 353.954 401.113C356.826 399.609 359.39 398.722 361.597 398.582Z" fill="#DD936F"/>
<path d="M337.633 342.177C338.036 342.034 338.475 342.205 338.682 342.564L338.747 342.707L348.392 369.814C348.588 370.366 348.196 370.95 347.611 370.978L347.109 371.01C346.69 371.04 346.204 371.082 345.655 371.136C344.082 371.292 342.327 371.522 340.437 371.84C335.038 372.747 329.641 374.174 324.613 376.229C315.415 379.988 308.522 385.41 304.837 392.761C304.621 393.192 304.097 393.366 303.666 393.15C303.235 392.934 303.061 392.41 303.277 391.979C307.177 384.198 314.398 378.518 323.952 374.613C329.112 372.504 334.631 371.046 340.148 370.119C341.756 369.848 343.27 369.64 344.662 369.486L345.894 369.36L346.363 369.317L337.103 343.292C336.959 342.889 337.131 342.449 337.49 342.243L337.633 342.177Z" fill="black"/>
<path d="M481.816 361.767C488.539 358.864 495.678 357.679 502.728 359.215C503.199 359.318 503.497 359.783 503.395 360.254C503.292 360.725 502.827 361.023 502.356 360.921C495.711 359.472 488.924 360.599 482.508 363.37C481.208 363.931 480.011 364.525 478.932 365.125L478.298 365.485C477.561 365.914 477.049 366.244 476.79 366.427C476.396 366.704 475.851 366.609 475.574 366.215C475.296 365.821 475.391 365.277 475.785 364.999L476.22 364.71C476.564 364.487 476.965 364.241 477.421 363.976C478.717 363.222 480.19 362.47 481.816 361.767Z" fill="black"/>
<path d="M468.639 390.815C468.875 390.265 469.512 390.01 470.062 390.246C473.91 391.895 477.456 394.54 480.685 397.904C482.657 399.958 484.391 402.156 485.876 404.355C486.266 404.932 486.618 405.48 486.932 405.989L487.475 406.902C487.58 407.083 487.657 407.223 487.707 407.318C488.024 407.912 487.727 408.633 487.115 408.849L486.956 408.892L467.196 412.692L401.971 445.43C401.489 445.671 400.914 445.52 400.608 445.098L400.516 444.947C400.274 444.466 400.425 443.89 400.848 443.584L400.999 443.492L466.358 410.689L466.639 410.593L485.04 407.053L484.774 406.627C484.667 406.458 484.555 406.285 484.439 406.109L484.08 405.568C482.66 403.466 481.001 401.364 479.121 399.405C476.079 396.236 472.761 393.761 469.209 392.238C468.658 392.003 468.403 391.365 468.639 390.815Z" fill="#DD936F"/>
<path d="M354.078 472.172C354.256 471.638 354.834 471.35 355.368 471.529L356.464 471.875L357.428 472.164C358.106 472.363 358.854 472.576 359.669 472.8C363.166 473.759 367.17 474.719 371.615 475.616C399.813 481.302 429.83 481.73 458.136 473.472C458.676 473.314 459.242 473.625 459.4 474.165C459.558 474.705 459.247 475.271 458.707 475.429C430.04 483.793 399.706 483.36 371.212 477.614C366.72 476.708 362.671 475.737 359.129 474.766L357.939 474.433C357.369 474.272 356.838 474.116 356.346 473.969L354.983 473.547C354.875 473.513 354.788 473.484 354.721 473.462C354.187 473.283 353.899 472.706 354.078 472.172Z" fill="#253368"/>
<path d="M399.62 187.655C400.342 187.655 400.928 188.24 400.928 188.963C400.928 193.99 397.143 198.108 392.415 198.108C387.689 198.108 383.907 193.99 383.907 188.963C383.907 188.24 384.493 187.655 385.215 187.655C385.938 187.655 386.524 188.24 386.524 188.963C386.524 192.592 389.187 195.492 392.415 195.492C395.646 195.492 398.311 192.592 398.311 188.963C398.311 188.24 398.897 187.655 399.62 187.655Z" fill="#253368"/>
<path d="M432.626 188.554C433.312 188.554 433.867 189.11 433.867 189.795C433.867 194.762 430.467 198.874 426.145 198.874C421.822 198.874 418.422 194.762 418.422 189.795C418.422 189.11 418.978 188.554 419.663 188.554C420.349 188.554 420.904 189.11 420.904 189.795C420.904 193.484 423.308 196.391 426.145 196.391C428.981 196.391 431.385 193.484 431.385 189.795C431.385 189.11 431.941 188.554 432.626 188.554Z" fill="#253368"/>
<path d="M384.838 173.564C389.832 171.456 395.12 171.668 400.119 173.273C401.555 173.735 402.628 174.201 403.243 174.525C403.882 174.863 404.127 175.654 403.79 176.293C403.452 176.932 402.661 177.177 402.022 176.84L401.693 176.68C401.592 176.633 401.471 176.579 401.333 176.519C400.744 176.263 400.068 176.005 399.318 175.765C394.863 174.334 390.187 174.147 385.855 175.975C385.065 176.309 384.294 176.708 383.545 177.177C382.932 177.56 382.125 177.373 381.742 176.761C381.359 176.148 381.545 175.341 382.158 174.958C383.025 174.415 383.92 173.952 384.838 173.564Z" fill="#253368"/>
<path fill-rule="evenodd" clip-rule="evenodd" d="M455.358 472.153C478.328 473.683 534.487 618.09 555.672 669.714C553.049 680.192 536.528 698.814 536.528 698.814C536.528 698.814 538.413 707.108 539.573 712.092C520.176 728.428 482.4 737.618 482.4 737.618V744.764C422.159 773.352 340.749 747.566 340.749 747.566C340.749 747.566 339.216 746.036 340.238 740.42C312.736 740.42 253.455 706.216 253.455 706.216L261.623 688.861L237.119 664.354C237.119 664.354 311.999 536.296 324.755 508.143C338.964 476.786 354.662 470.964 354.662 470.964C354.662 470.964 414.596 469.433 455.358 472.153Z" fill="#002AB2"/>
<path d="M326.045 552.627C326.287 552.119 326.895 551.904 327.404 552.146C327.861 552.364 328.081 552.878 327.944 553.349L327.885 553.504L255.755 704.873L256.662 705.524L257.432 706.062C259.374 707.409 261.662 708.91 264.282 710.529C271.777 715.156 280.422 719.786 290.098 724.107C305.633 731.045 322.312 736.506 339.921 739.932C340.474 740.039 340.835 740.574 340.727 741.127C340.62 741.679 340.085 742.04 339.532 741.933C321.763 738.476 304.937 732.967 289.267 725.969C279.504 721.609 270.78 716.937 263.211 712.263C260.854 710.808 258.76 709.444 256.94 708.199L256.27 707.738C255.855 707.45 255.474 707.182 255.126 706.933L254.156 706.23C254.02 706.13 253.919 706.054 253.855 706.005C253.52 705.749 253.382 705.318 253.491 704.923L253.553 704.756L326.045 552.627Z" fill="black"/>
<path d="M472.596 539.355C473.068 539.17 473.594 539.361 473.844 539.784L473.917 539.933L541.546 712.741C541.72 713.185 541.562 713.691 541.166 713.958L540.691 714.27C540.306 714.521 539.851 714.811 539.33 715.137L537.997 715.96C536.838 716.667 535.558 717.423 534.166 718.219C528.601 721.403 522.368 724.586 515.615 727.557C504.901 732.27 493.901 735.995 482.869 738.36C482.319 738.478 481.777 738.127 481.659 737.577C481.541 737.026 481.891 736.484 482.442 736.366C493.328 734.033 504.199 730.352 514.794 725.691C521.479 722.751 527.648 719.6 533.154 716.45C535.079 715.348 536.784 714.326 538.248 713.409L539.345 712.711L472.019 540.676C471.834 540.204 472.025 539.678 472.447 539.428L472.596 539.355Z" fill="black"/>
<path d="M434.47 499.488C435.021 499.373 435.562 499.726 435.677 500.277L439.357 517.992C440.666 524.324 442.059 531.102 443.525 538.264L444.862 544.811C451.221 575.981 457.58 607.777 463.577 638.622L465.069 646.313C466.171 652.008 467.251 657.625 468.308 663.157L470.598 675.193C475.537 701.294 479.846 724.944 483.403 745.613C483.487 746.103 483.206 746.582 482.738 746.747C479.325 747.951 475.862 749.057 472.353 750.065C435.789 760.569 396.799 760.233 360.086 753.364C354.457 752.311 349.382 751.182 344.944 750.053L343.452 749.667C342.976 749.541 342.522 749.419 342.089 749.301L340.311 748.802C339.901 748.684 339.605 748.595 339.426 748.54C338.982 748.402 338.695 747.985 338.708 747.535L338.729 747.364L373.972 572.797C374.083 572.246 374.621 571.889 375.173 572C375.669 572.1 376.008 572.546 375.99 573.036L375.97 573.201L340.912 746.853L342.628 747.335C343.481 747.568 344.422 747.816 345.446 748.077C349.844 749.196 354.876 750.315 360.461 751.36C396.889 758.175 435.576 758.51 471.79 748.106C474.567 747.308 477.313 746.449 480.029 745.527L481.246 745.105L479.932 737.538C476.554 718.24 472.58 696.582 468.099 672.954L467.094 667.671C465.788 660.811 464.444 653.817 463.067 646.7C457.628 618.587 451.86 589.564 446.042 560.845L440.229 532.333L433.682 500.695C433.566 500.144 433.919 499.604 434.47 499.488Z" fill="black"/>
<path d="M405.365 502.788C405.871 502.816 406.271 503.208 406.325 503.696L406.329 503.861L397.414 672.065C397.384 672.627 396.904 673.059 396.342 673.031C395.836 673.002 395.436 672.611 395.382 672.123L395.378 671.957L404.293 503.754C404.323 503.191 404.803 502.76 405.365 502.788Z" fill="black"/>
<path d="M375.515 477.194C375.691 476.659 376.267 476.367 376.802 476.543C377.283 476.701 377.567 477.183 377.491 477.668L377.452 477.83L343.762 580.44C343.586 580.975 343.01 581.266 342.475 581.091C341.994 580.933 341.71 580.45 341.786 579.965L341.825 579.804L375.515 477.194Z" fill="black"/>
</g>
<mask id="mask0_1_1398" style="mask-type:alpha" maskUnits="userSpaceOnUse" x="773" y="686" width="252" height="289">
<rect x="773.781" y="686.635" width="251.044" height="287.992" fill="url(#paint7_linear_1_1398)"/>
</mask>
<g mask="url(#mask0_1_1398)">
<g opacity="0.8">
<path d="M906.001 703.764L968.029 737.391L997.681 786.607L953.114 948.207L906 920.957L906.001 703.764Z" fill="url(#paint8_linear_1_1398)"/>
<path opacity="0.8" d="M905.999 703.764L906 815.371L960.783 783.104L968.028 737.391L905.999 703.764Z" fill="url(#paint9_linear_1_1398)" fill-opacity="0.7"/>
<g opacity="0.8">
<path d="M905.999 703.766L843.961 737.398L814.318 786.608L858.886 948.207L905.999 920.957L905.999 703.766Z" fill="url(#paint10_linear_1_1398)" fill-opacity="0.7"/>
<path d="M905.999 703.766L843.961 737.398L814.318 786.608L858.886 948.207L905.999 920.957L905.999 703.766Z" fill="url(#paint11_linear_1_1398)" fill-opacity="0.5"/>
</g>
<path d="M953.116 948.206L906 920.957L906 975.455L953.116 948.206Z" fill="url(#paint12_linear_1_1398)"/>
<path d="M906.001 789.579L874.803 771.536L906.001 753.494L937.198 771.536L906.001 789.579Z" fill="url(#paint13_linear_1_1398)" fill-opacity="0.5"/>
<path d="M858.884 948.206L906 975.456L906 920.957L858.884 948.206Z" fill="url(#paint14_linear_1_1398)" fill-opacity="0.8"/>
<path d="M906.001 963.971L880.73 949.356L906.001 934.741L931.272 949.356L906.001 963.971Z" fill="url(#paint15_linear_1_1398)" fill-opacity="0.6"/>
<path opacity="0.8" d="M906 703.764L905.999 815.371L851.216 783.104L843.972 737.391L906 703.764Z" fill="url(#paint16_linear_1_1398)"/>
<path d="M814.319 786.608L843.972 737.391L851.217 783.104L814.319 786.608Z" fill="url(#paint17_linear_1_1398)" fill-opacity="0.7"/>
<path d="M906.001 832.097L855.227 802.733L906.001 773.369L956.774 802.733L906.001 832.097Z" fill="url(#paint18_linear_1_1398)" fill-opacity="0.7"/>
<path d="M906.001 832.097L855.227 802.733L906.001 773.369L956.774 802.733L906.001 832.097Z" fill="url(#paint19_linear_1_1398)" fill-opacity="0.7"/>
<path d="M906.002 773.37L855.229 802.732L874.805 771.535L906.002 753.493L906.002 773.37Z" fill="url(#paint20_linear_1_1398)" fill-opacity="0.9"/>
<path d="M906.001 773.362L956.773 802.725L931.271 949.355L906.001 934.74L906.001 773.362Z" fill="url(#paint21_linear_1_1398)" fill-opacity="0.6"/>
<path d="M906 773.362L855.228 802.725L880.73 949.355L906 934.74L906 773.362Z" fill="url(#paint22_linear_1_1398)" fill-opacity="0.9"/>
<path d="M906.002 773.37L956.774 802.732L937.198 771.535L906.002 753.493L906.002 773.37Z" fill="url(#paint23_linear_1_1398)" fill-opacity="0.9"/>
<path d="M997.681 786.608L968.028 737.391L960.783 783.104L997.681 786.608Z" fill="url(#paint24_linear_1_1398)" fill-opacity="0.7"/>
</g>
</g>
<g filter="url(#filter1_f_1_1398)">
<ellipse cx="906" cy="731.333" rx="173" ry="75.5522" fill="url(#paint25_radial_1_1398)" fill-opacity="0.6"/>
</g>
<g filter="url(#filter2_f_1_1398)">
<ellipse cx="906" cy="731.333" rx="122.884" ry="53.6655" fill="url(#paint26_radial_1_1398)" fill-opacity="0.6"/>
</g>
<path d="M905.999 669.097L996.043 721.173L905.999 773.249L815.955 721.173L905.999 669.097Z" fill="url(#paint27_linear_1_1398)" fill-opacity="0.5"/>
<path d="M905.999 738.625L843.971 704.999L814.318 655.782L858.886 494.183L906 521.432L905.999 738.625Z" fill="url(#paint28_linear_1_1398)"/>
<path opacity="0.8" d="M906 738.625L905.999 627.018L851.217 659.285L843.972 704.998L906 738.625Z" fill="url(#paint29_linear_1_1398)" fill-opacity="0.7"/>
<g opacity="0.8">
<path d="M906 738.624L968.039 704.991L997.681 655.782L953.114 494.183L906 521.432L906 738.624Z" fill="url(#paint30_linear_1_1398)" fill-opacity="0.7"/>
<path d="M906 738.624L968.039 704.991L997.681 655.782L953.114 494.183L906 521.432L906 738.624Z" fill="url(#paint31_linear_1_1398)" fill-opacity="0.5"/>
</g>
<path d="M858.884 494.183L906 521.432L906 466.934L858.884 494.183Z" fill="url(#paint32_linear_1_1398)"/>
<path d="M905.999 652.81L937.196 670.853L905.999 688.895L874.802 670.853L905.999 652.81Z" fill="url(#paint33_linear_1_1398)" fill-opacity="0.5"/>
<path d="M953.116 494.183L905.999 466.934L905.999 521.432L953.116 494.183Z" fill="url(#paint34_linear_1_1398)" fill-opacity="0.8"/>
<path d="M905.999 478.418L931.27 493.034L905.999 507.649L880.728 493.034L905.999 478.418Z" fill="url(#paint35_linear_1_1398)" fill-opacity="0.6"/>
<path opacity="0.8" d="M906.001 738.625L906.002 627.018L960.784 659.285L968.029 704.998L906.001 738.625Z" fill="url(#paint36_linear_1_1398)"/>
<path d="M997.681 655.781L968.029 704.998L960.784 659.285L997.681 655.781Z" fill="url(#paint37_linear_1_1398)" fill-opacity="0.7"/>
<path d="M905.999 610.292L956.773 639.656L905.999 669.02L855.226 639.656L905.999 610.292Z" fill="url(#paint38_linear_1_1398)" fill-opacity="0.7"/>
<path d="M905.999 610.292L956.773 639.656L905.999 669.02L855.226 639.656L905.999 610.292Z" fill="url(#paint39_linear_1_1398)" fill-opacity="0.7"/>
<path d="M905.998 669.019L956.771 639.656L937.195 670.854L905.998 688.896V669.019Z" fill="url(#paint40_linear_1_1398)" fill-opacity="0.9"/>
<path d="M905.999 669.027L855.227 639.664L880.729 493.033L905.999 507.649L905.999 669.027Z" fill="url(#paint41_linear_1_1398)" fill-opacity="0.6"/>
<path d="M906 669.027L956.772 639.664L931.269 493.033L906 507.649L906 669.027Z" fill="url(#paint42_linear_1_1398)" fill-opacity="0.9"/>
<path d="M905.998 669.019L855.226 639.656L874.802 670.854L905.998 688.896V669.019Z" fill="url(#paint43_linear_1_1398)" fill-opacity="0.9"/>
<path d="M814.319 655.781L843.972 704.998L851.217 659.285L814.319 655.781Z" fill="url(#paint44_linear_1_1398)" fill-opacity="0.7"/>
<defs>
<filter id="filter0_f_1_1398" x="0.199997" y="-89.8" width="1202.6" height="1202.6" filterUnits="userSpaceOnUse" color-interpolation-filters="sRGB">
<feFlood flood-opacity="0" result="BackgroundImageFix"/>
<feBlend mode="normal" in="SourceGraphic" in2="BackgroundImageFix" result="shape"/>
<feGaussianBlur stdDeviation="85.9" result="effect1_foregroundBlur_1_1398"/>
</filter>
<filter id="filter1_f_1_1398" x="725.592" y="648.373" width="360.816" height="165.921" filterUnits="userSpaceOnUse" color-interpolation-filters="sRGB">
<feFlood flood-opacity="0" result="BackgroundImageFix"/>
<feBlend mode="normal" in="SourceGraphic" in2="BackgroundImageFix" result="shape"/>
<feGaussianBlur stdDeviation="3.70408" result="effect1_foregroundBlur_1_1398"/>
</filter>
<filter id="filter2_f_1_1398" x="775.709" y="670.259" width="260.584" height="122.147" filterUnits="userSpaceOnUse" color-interpolation-filters="sRGB">
<feFlood flood-opacity="0" result="BackgroundImageFix"/>
<feBlend mode="normal" in="SourceGraphic" in2="BackgroundImageFix" result="shape"/>
<feGaussianBlur stdDeviation="3.70408" result="effect1_foregroundBlur_1_1398"/>
</filter>
<radialGradient id="paint0_radial_1_1398" cx="0" cy="0" r="1" gradientUnits="userSpaceOnUse" gradientTransform="translate(555.973 498.615) rotate(89.3883) scale(482.785)">
<stop stop-color="#2954A3"/>
<stop offset="1" stop-color="#101241"/>
</radialGradient>
<radialGradient id="paint1_angular_1_1398" cx="0" cy="0" r="1" gradientUnits="userSpaceOnUse" gradientTransform="translate(642.381 665.459) scale(508.767 237.904)">
<stop offset="0.458333" stop-color="white"/>
<stop offset="0.717799" stop-color="white" stop-opacity="0"/>
<stop offset="0.782437" stop-color="white" stop-opacity="0"/>
<stop offset="1" stop-color="white" stop-opacity="0.4"/>
</radialGradient>
<radialGradient id="paint2_angular_1_1398" cx="0" cy="0" r="1" gradientUnits="userSpaceOnUse" gradientTransform="translate(642.381 667.059) scale(508.767 237.905)">
<stop offset="0.458333" stop-color="white"/>
<stop offset="0.717799" stop-color="white" stop-opacity="0"/>
<stop offset="0.782437" stop-color="white" stop-opacity="0"/>
<stop offset="1" stop-color="white" stop-opacity="0.4"/>
</radialGradient>
<radialGradient id="paint3_angular_1_1398" cx="0" cy="0" r="1" gradientUnits="userSpaceOnUse" gradientTransform="translate(642.381 671.825) scale(508.767 237.015)">
<stop offset="0.458333" stop-color="white"/>
<stop offset="0.717799" stop-color="white" stop-opacity="0"/>
<stop offset="0.782437" stop-color="white" stop-opacity="0"/>
<stop offset="1" stop-color="white" stop-opacity="0.4"/>
</radialGradient>
<radialGradient id="paint4_angular_1_1398" cx="0" cy="0" r="1" gradientUnits="userSpaceOnUse" gradientTransform="translate(642.381 678.847) scale(508.767 236.29)">
<stop offset="0.458333" stop-color="white"/>
<stop offset="0.717799" stop-color="white" stop-opacity="0"/>
<stop offset="0.782437" stop-color="white" stop-opacity="0"/>
<stop offset="1" stop-color="white" stop-opacity="0.4"/>
</radialGradient>
<radialGradient id="paint5_angular_1_1398" cx="0" cy="0" r="1" gradientUnits="userSpaceOnUse" gradientTransform="translate(642.381 688.721) scale(508.767 235.041)">
<stop offset="0.458333" stop-color="white"/>
<stop offset="0.717799" stop-color="white" stop-opacity="0"/>
<stop offset="0.782437" stop-color="white" stop-opacity="0"/>
<stop offset="1" stop-color="white" stop-opacity="0.4"/>
</radialGradient>
<linearGradient id="paint6_linear_1_1398" x1="402" y1="182" x2="800" y2="732" gradientUnits="userSpaceOnUse">
<stop stop-color="#C961DE"/>
<stop offset="1" stop-color="#2954A3"/>
</linearGradient>
<linearGradient id="paint7_linear_1_1398" x1="899.303" y1="572.877" x2="899.303" y2="884.172" gradientUnits="userSpaceOnUse">
<stop/>
<stop offset="1" stop-opacity="0"/>
</linearGradient>
<linearGradient id="paint8_linear_1_1398" x1="725.541" y1="965.309" x2="712.318" y2="782.577" gradientUnits="userSpaceOnUse">
<stop stop-color="#3D79ED"/>
<stop offset="0.265625" stop-color="#3458C1" stop-opacity="0.7"/>
<stop offset="0.618879" stop-color="#3753B8" stop-opacity="0.7"/>
<stop offset="0.895833" stop-color="#5BB0FF" stop-opacity="0.9"/>
<stop offset="1" stop-color="#5BB0FF" stop-opacity="0.6"/>
</linearGradient>
<linearGradient id="paint9_linear_1_1398" x1="913.336" y1="718.493" x2="945.246" y2="789.262" gradientUnits="userSpaceOnUse">
<stop offset="0.046875" stop-color="white"/>
<stop offset="0.427083" stop-color="#DFF4FF"/>
<stop offset="0.994792" stop-color="#0E42C8"/>
</linearGradient>
<linearGradient id="paint10_linear_1_1398" x1="814.319" y1="697.031" x2="920.514" y2="778.055" gradientUnits="userSpaceOnUse">
<stop offset="0.280479" stop-color="white"/>
<stop offset="0.469567" stop-color="#FF79DA"/>
<stop offset="0.692708" stop-color="#3D3AE3" stop-opacity="0.9"/>
</linearGradient>
<linearGradient id="paint11_linear_1_1398" x1="814.319" y1="708.358" x2="919.298" y2="809.112" gradientUnits="userSpaceOnUse">
<stop offset="0.161458" stop-color="white"/>
<stop offset="1" stop-color="white" stop-opacity="0"/>
</linearGradient>
<linearGradient id="paint12_linear_1_1398" x1="905.884" y1="974.55" x2="930.625" y2="934.01" gradientUnits="userSpaceOnUse">
<stop stop-color="#1AD6FF"/>
<stop offset="1" stop-color="#496BE4" stop-opacity="0.6"/>
<stop offset="1" stop-color="#1F3CA3"/>
</linearGradient>
<linearGradient id="paint13_linear_1_1398" x1="888.095" y1="761.358" x2="931.026" y2="771.536" gradientUnits="userSpaceOnUse">
<stop stop-color="#81FF6C"/>
<stop offset="1" stop-color="#31F3FF"/>
</linearGradient>
<linearGradient id="paint14_linear_1_1398" x1="858.884" y1="951.001" x2="903.797" y2="955.174" gradientUnits="userSpaceOnUse">
<stop stop-color="#FF79C9"/>
<stop offset="1" stop-color="#1F3CA3"/>
</linearGradient>
<linearGradient id="paint15_linear_1_1398" x1="885.614" y1="945.933" x2="915.422" y2="949.356" gradientUnits="userSpaceOnUse">
<stop stop-color="#52FF6E"/>
<stop offset="1" stop-color="#31FFFF"/>
</linearGradient>
<linearGradient id="paint16_linear_1_1398" x1="856.103" y1="721.473" x2="879.305" y2="803.818" gradientUnits="userSpaceOnUse">
<stop offset="0.103809" stop-color="white"/>
<stop offset="0.436548" stop-color="#FFAACE" stop-opacity="0.8"/>
<stop offset="0.71875" stop-color="#6F97FF" stop-opacity="0.8"/>
</linearGradient>
<linearGradient id="paint17_linear_1_1398" x1="832.768" y1="750.09" x2="851.217" y2="786.608" gradientUnits="userSpaceOnUse">
<stop stop-color="white"/>
<stop offset="0.591466" stop-color="#FF94D4"/>
<stop offset="1" stop-color="#C994FF"/>
</linearGradient>
<linearGradient id="paint18_linear_1_1398" x1="876.859" y1="786.168" x2="946.729" y2="802.733" gradientUnits="userSpaceOnUse">
<stop stop-color="#81FF6C"/>
<stop offset="1" stop-color="#31F3FF"/>
</linearGradient>
<linearGradient id="paint19_linear_1_1398" x1="906.001" y1="775.477" x2="906.001" y2="833.437" gradientUnits="userSpaceOnUse">
<stop stop-color="white"/>
<stop offset="1" stop-color="white" stop-opacity="0"/>
</linearGradient>
<linearGradient id="paint20_linear_1_1398" x1="852.753" y1="802.732" x2="904.716" y2="755.814" gradientUnits="userSpaceOnUse">
<stop offset="0.149863" stop-color="white"/>
<stop offset="0.300261" stop-color="#8CFF31"/>
<stop offset="0.449118" stop-color="#45C3EB"/>
<stop offset="1" stop-color="#72E6FF"/>
</linearGradient>
<linearGradient id="paint21_linear_1_1398" x1="928.67" y1="773.362" x2="1009.21" y2="829.796" gradientUnits="userSpaceOnUse">
<stop stop-color="#6CFFED"/>
<stop offset="1" stop-color="#197F9F"/>
</linearGradient>
<linearGradient id="paint22_linear_1_1398" x1="728.561" y1="839.344" x2="812.686" y2="927.428" gradientUnits="userSpaceOnUse">
<stop offset="0.464598" stop-color="white"/>
<stop offset="0.790313" stop-color="#6DF390"/>
<stop offset="1" stop-color="#21CAFF" stop-opacity="0.9"/>
</linearGradient>
<linearGradient id="paint23_linear_1_1398" x1="956.774" y1="802.732" x2="907.286" y2="755.882" gradientUnits="userSpaceOnUse">
<stop offset="0.125" stop-color="white"/>
<stop offset="0.297772" stop-color="#8CFF31"/>
<stop offset="0.447917" stop-color="#5BF5FF"/>
</linearGradient>
<linearGradient id="paint24_linear_1_1398" x1="966.098" y1="733.397" x2="973.252" y2="786.608" gradientUnits="userSpaceOnUse">
<stop stop-color="#DFF4FF"/>
<stop offset="0.994792" stop-color="#0E42C8"/>
</linearGradient>
<radialGradient id="paint25_radial_1_1398" cx="0" cy="0" r="1" gradientUnits="userSpaceOnUse" gradientTransform="translate(906 731.333) rotate(90) scale(75.5522 173)">
<stop stop-color="#739AFF"/>
<stop offset="1" stop-color="#6978FF" stop-opacity="0"/>
</radialGradient>
<radialGradient id="paint26_radial_1_1398" cx="0" cy="0" r="1" gradientUnits="userSpaceOnUse" gradientTransform="translate(906 731.333) rotate(90) scale(53.6655 122.884)">
<stop stop-color="#739AFF"/>
<stop offset="1" stop-color="#6978FF" stop-opacity="0"/>
</radialGradient>
<linearGradient id="paint27_linear_1_1398" x1="951.021" y1="676.151" x2="860.977" y2="766.195" gradientUnits="userSpaceOnUse">
<stop stop-color="#6C7BFF"/>
<stop offset="1" stop-color="#31B5FF"/>
</linearGradient>
<linearGradient id="paint28_linear_1_1398" x1="1086.46" y1="477.08" x2="1099.68" y2="659.812" gradientUnits="userSpaceOnUse">
<stop stop-color="#3D79ED"/>
<stop offset="0.265625" stop-color="#3458C1" stop-opacity="0.7"/>
<stop offset="0.618879" stop-color="#3753B8" stop-opacity="0.7"/>
<stop offset="0.895833" stop-color="#5BB0FF" stop-opacity="0.9"/>
<stop offset="1" stop-color="#5BB0FF" stop-opacity="0.6"/>
</linearGradient>
<linearGradient id="paint29_linear_1_1398" x1="898.664" y1="723.896" x2="866.754" y2="653.127" gradientUnits="userSpaceOnUse">
<stop offset="0.046875" stop-color="white"/>
<stop offset="0.427083" stop-color="#DFF4FF"/>
<stop offset="0.994792" stop-color="#0E42C8"/>
</linearGradient>
<linearGradient id="paint30_linear_1_1398" x1="997.681" y1="745.359" x2="891.486" y2="664.335" gradientUnits="userSpaceOnUse">
<stop offset="0.280479" stop-color="white"/>
<stop offset="0.469567" stop-color="#FF79DA"/>
<stop offset="0.692708" stop-color="#3D3AE3" stop-opacity="0.9"/>
</linearGradient>
<linearGradient id="paint31_linear_1_1398" x1="997.681" y1="734.031" x2="892.702" y2="633.278" gradientUnits="userSpaceOnUse">
<stop offset="0.161458" stop-color="white"/>
<stop offset="1" stop-color="white" stop-opacity="0"/>
</linearGradient>
<linearGradient id="paint32_linear_1_1398" x1="906.116" y1="467.839" x2="881.375" y2="508.379" gradientUnits="userSpaceOnUse">
<stop stop-color="#1AD6FF"/>
<stop offset="1" stop-color="#496BE4" stop-opacity="0.6"/>
<stop offset="1" stop-color="#1F3CA3"/>
</linearGradient>
<linearGradient id="paint33_linear_1_1398" x1="923.905" y1="681.031" x2="880.974" y2="670.853" gradientUnits="userSpaceOnUse">
<stop stop-color="#81FF6C"/>
<stop offset="1" stop-color="#31F3FF"/>
</linearGradient>
<linearGradient id="paint34_linear_1_1398" x1="953.116" y1="491.388" x2="908.203" y2="487.215" gradientUnits="userSpaceOnUse">
<stop stop-color="#FF79C9"/>
<stop offset="1" stop-color="#1F3CA3"/>
</linearGradient>
<linearGradient id="paint35_linear_1_1398" x1="926.386" y1="496.456" x2="896.577" y2="493.033" gradientUnits="userSpaceOnUse">
<stop stop-color="#52FF6E"/>
<stop offset="1" stop-color="#31FFFF"/>
</linearGradient>
<linearGradient id="paint36_linear_1_1398" x1="955.897" y1="720.915" x2="932.696" y2="638.57" gradientUnits="userSpaceOnUse">
<stop offset="0.103809" stop-color="white"/>
<stop offset="0.436548" stop-color="#FFAACE" stop-opacity="0.8"/>
<stop offset="0.71875" stop-color="#6F97FF" stop-opacity="0.8"/>
</linearGradient>
<linearGradient id="paint37_linear_1_1398" x1="979.233" y1="692.299" x2="960.784" y2="655.781" gradientUnits="userSpaceOnUse">
<stop stop-color="white"/>
<stop offset="0.591466" stop-color="#FF94D4"/>
<stop offset="1" stop-color="#C994FF"/>
</linearGradient>
<linearGradient id="paint38_linear_1_1398" x1="935.141" y1="656.221" x2="865.271" y2="639.656" gradientUnits="userSpaceOnUse">
<stop stop-color="#81FF6C"/>
<stop offset="1" stop-color="#31F3FF"/>
</linearGradient>
<linearGradient id="paint39_linear_1_1398" x1="905.999" y1="666.912" x2="905.999" y2="608.951" gradientUnits="userSpaceOnUse">
<stop stop-color="white"/>
<stop offset="1" stop-color="white" stop-opacity="0"/>
</linearGradient>
<linearGradient id="paint40_linear_1_1398" x1="959.247" y1="639.656" x2="907.284" y2="686.575" gradientUnits="userSpaceOnUse">
<stop offset="0.149863" stop-color="white"/>
<stop offset="0.300261" stop-color="#8CFF31"/>
<stop offset="0.449118" stop-color="#45C3EB"/>
<stop offset="1" stop-color="#72E6FF"/>
</linearGradient>
<linearGradient id="paint41_linear_1_1398" x1="883.33" y1="669.027" x2="802.792" y2="612.593" gradientUnits="userSpaceOnUse">
<stop stop-color="#6CFFED"/>
<stop offset="1" stop-color="#197F9F"/>
</linearGradient>
<linearGradient id="paint42_linear_1_1398" x1="1083.44" y1="603.044" x2="999.314" y2="514.961" gradientUnits="userSpaceOnUse">
<stop offset="0.464598" stop-color="white"/>
<stop offset="0.790313" stop-color="#6DF390"/>
<stop offset="1" stop-color="#21CAFF" stop-opacity="0.9"/>
</linearGradient>
<linearGradient id="paint43_linear_1_1398" x1="855.226" y1="639.656" x2="904.714" y2="686.507" gradientUnits="userSpaceOnUse">
<stop offset="0.125" stop-color="white"/>
<stop offset="0.297772" stop-color="#8CFF31"/>
<stop offset="0.447917" stop-color="#5BF5FF"/>
</linearGradient>
<linearGradient id="paint44_linear_1_1398" x1="845.903" y1="708.992" x2="838.749" y2="655.781" gradientUnits="userSpaceOnUse">
<stop stop-color="#DFF4FF"/>
<stop offset="0.994792" stop-color="#0E42C8"/>
</linearGradient>
<clipPath id="clip0_1_1398">
<path d="M276 -66H906V439C906 612.97 764.97 754 591 754V754C417.03 754 276 612.97 276 439V-66Z" fill="white"/>
</clipPath>
</defs>
</svg>
